<?xml version="1.0" encoding="utf-8"?>
<!-- Generated by IcoMoon.io -->
<!DOCTYPE svg PUBLIC "-//W3C//DTD SVG 1.1//EN" "http://www.w3.org/Graphics/SVG/1.1/DTD/svg11.dtd">
<svg version="1.1" xmlns="http://www.w3.org/2000/svg" xmlns:xlink="http://www.w3.org/1999/xlink" width="15" height="15" viewBox="0 0 15 15">
<g>
</g>
	<path d="M7.5 2.813c-0.805 0-1.582 0.127-2.31 0.377-0.684 0.235-1.294 0.568-1.811 0.988-0.97 0.788-1.504 1.802-1.504 2.854 0 0.59 0.164 1.163 0.487 1.701 0.333 0.555 0.835 1.063 1.45 1.469 0.445 0.293 0.744 0.761 0.823 1.288 0.026 0.176 0.043 0.353 0.049 0.529 0.109-0.091 0.216-0.188 0.321-0.293 0.354-0.354 0.832-0.549 1.326-0.549 0.079 0 0.158 0.005 0.237 0.015 0.307 0.039 0.621 0.059 0.933 0.059 0.805 0 1.582-0.127 2.31-0.377 0.684-0.235 1.294-0.568 1.811-0.988 0.97-0.788 1.504-1.802 1.504-2.854 0-1.052-0.534-2.066-1.504-2.854-0.517-0.42-1.127-0.753-1.811-0.988-0.728-0.25-1.505-0.377-2.31-0.377zM7.5 0.938v0c4.142 0 7.5 2.728 7.5 6.094 0 3.366-3.358 6.094-7.5 6.094-0.398 0-0.788-0.025-1.169-0.074-1.611 1.611-3.534 1.9-5.393 1.942v-0.394c1.004-0.492 1.875-1.388 1.875-2.412 0-0.143-0.011-0.283-0.032-0.42-1.696-1.117-2.781-2.824-2.781-4.736 0-3.365 3.358-6.094 7.5-6.094z" fill="#000000" />
</svg>
