<?xml version="1.0" encoding="utf-8"?>
<!-- Generated by IcoMoon.io -->
<!DOCTYPE svg PUBLIC "-//W3C//DTD SVG 1.1//EN" "http://www.w3.org/Graphics/SVG/1.1/DTD/svg11.dtd">
<svg version="1.1" xmlns="http://www.w3.org/2000/svg" xmlns:xlink="http://www.w3.org/1999/xlink" width="15" height="15" viewBox="0 0 15 15">
<g>
</g>
	<path d="M13.234 2.921l-2.093-2.093c-0.456-0.456-1.356-0.829-2.001-0.829h-7.031c-0.645 0-1.172 0.527-1.172 1.172v12.656c0 0.645 0.527 1.172 1.172 1.172h10.781c0.645 0 1.172-0.527 1.172-1.172v-8.906c0-0.645-0.373-1.545-0.829-2.001zM12.571 3.584c0.046 0.046 0.092 0.102 0.136 0.166h-2.394v-2.394c0.064 0.044 0.12 0.090 0.166 0.136l2.093 2.093zM13.125 13.828c0 0.127-0.107 0.234-0.234 0.234h-10.781c-0.127 0-0.234-0.107-0.234-0.234v-12.656c0-0.127 0.107-0.234 0.234-0.234h7.031c0.071 0 0.15 0.009 0.234 0.025v3.725h3.725c0.016 0.084 0.025 0.164 0.025 0.234v8.906z" fill="#000000" />
</svg>
