<?xml version="1.0" encoding="utf-8"?>
<!-- Generated by IcoMoon.io -->
<!DOCTYPE svg PUBLIC "-//W3C//DTD SVG 1.1//EN" "http://www.w3.org/Graphics/SVG/1.1/DTD/svg11.dtd">
<svg version="1.1" xmlns="http://www.w3.org/2000/svg" xmlns:xlink="http://www.w3.org/1999/xlink" width="15" height="15" viewBox="0 0 15 15">
<g>
</g>
	<path d="M11.719 6.094v-1.875c0-2.33-1.889-4.219-4.219-4.219s-4.219 1.889-4.219 4.219v1.875c-0.777 0-1.406 0.63-1.406 1.406v3.281c0 2.33 1.889 4.219 4.219 4.219h2.813c2.33 0 4.219-1.889 4.219-4.219v-3.281c0-0.777-0.63-1.406-1.406-1.406zM4.219 4.219c0-1.812 1.469-3.281 3.281-3.281s3.281 1.469 3.281 3.281v1.875h-0.938v-1.874c0-1.295-1.049-2.344-2.344-2.344s-2.344 1.049-2.344 2.344v1.874h-0.938v-1.875zM9.375 4.219v1.875h-3.75v-1.875c0-1.035 0.84-1.875 1.875-1.875s1.875 0.84 1.875 1.875zM12.188 8.906v1.875c0 1.809-1.472 3.281-3.281 3.281h-2.813c-1.809 0-3.281-1.472-3.281-3.281v-3.281c0-0.259 0.21-0.469 0.469-0.469 0.313 0 0.625 0 0.938 0h6.563c0.312 0 0.624 0 0.938 0 0.258 0 0.469 0.21 0.469 0.469v1.406zM7.5 8.906c0.518 0 0.938 0.42 0.938 0.938 0 0.285-0.154 0.829-0.312 1.257-0.128 0.346-0.259 0.617-0.625 0.617-0.337 0-0.497-0.274-0.625-0.622-0.157-0.427-0.313-0.968-0.313-1.252 0-0.518 0.42-0.938 0.938-0.938z" fill="#000000"></path>
</svg>
