<?xml version="1.0" encoding="utf-8"?>
<!-- Generated by IcoMoon.io -->
<!DOCTYPE svg PUBLIC "-//W3C//DTD SVG 1.1//EN" "http://www.w3.org/Graphics/SVG/1.1/DTD/svg11.dtd">
<svg version="1.1" xmlns="http://www.w3.org/2000/svg" xmlns:xlink="http://www.w3.org/1999/xlink" width="15" height="15" viewBox="0 0 15 15">
<g>
</g>
	<path d="M14.583 13.282c-0.094-0.062-1.804-1.184-4.347-1.734 0.933-1.182 1.532-2.771 1.786-3.829 0.353-1.466 0.216-4.335-1.192-6.123-0.823-1.045-1.975-1.597-3.33-1.597-1.356 0-2.507 0.552-3.33 1.597-1.408 1.787-1.545 4.656-1.192 6.122 0.255 1.058 0.853 2.647 1.786 3.829-2.543 0.55-4.253 1.672-4.346 1.734-0.344 0.229-0.497 0.656-0.377 1.051 0.119 0.396 0.484 0.667 0.897 0.667h13.125c0.413 0 0.777-0.271 0.897-0.667 0.12-0.395-0.033-0.822-0.377-1.051zM9.5 10.968l-0.153 0.194c-1.118 1.284-2.576 1.284-3.693 0l-0.153-0.194c-1.305-1.654-1.953-3.842-1.674-5.93 0.255-2.006 1.405-4.101 3.674-4.101 2.269 0 3.419 2.095 3.674 4.101 0.278 2.088-0.367 4.274-1.674 5.929zM0.938 14.063c0.065-0.043 1.653-1.085 4.025-1.598l1.164-0.252c0.416 0.273 0.872 0.443 1.373 0.443 0.502 0 0.958-0.17 1.373-0.443l1.164 0.252c2.353 0.509 3.936 1.539 4.025 1.598h-13.125z" fill="#000000"></path>
</svg>
