<?xml version="1.0" encoding="utf-8"?>
<!-- Generated by IcoMoon.io -->
<!DOCTYPE svg PUBLIC "-//W3C//DTD SVG 1.1//EN" "http://www.w3.org/Graphics/SVG/1.1/DTD/svg11.dtd">
<svg version="1.1" xmlns="http://www.w3.org/2000/svg" xmlns:xlink="http://www.w3.org/1999/xlink" width="15" height="15" viewBox="0 0 15 15">
<g>
</g>
	<path d="M9.123 10.294c-0.324-0.052-0.331-0.942-0.331-0.942s0.952-0.942 1.159-2.209c0.558 0 0.903-1.347 0.345-1.821 0.023-0.499 0.717-3.916-2.796-3.916-3.513 0-2.819 3.417-2.796 3.916-0.558 0.474-0.213 1.821 0.345 1.821 0.207 1.267 1.159 2.209 1.159 2.209s-0.007 0.891-0.331 0.942c-1.043 0.166-4.939 1.884-4.939 3.769h13.125c0-1.884-3.896-3.603-4.939-3.769z" fill="#000000" />
</svg>
